# AST/ASF file generated using VICON BodyLanguage
# -----------------------------------------------
:version 1.10
:name VICON
:units
  mass 1.0
  length 0.45
  angle deg
:documentation
   .ast/.asf automatically generated from VICON data using
   VICON BodyBuilder and BodyLanguage model FoxedUp or BRILLIANT.MOD
:root
   order TX TY TZ RX RY RZ
   axis XYZ
   position 0 0 0  
   orientation 0 0 0 
:bonedata
  begin
     id 1 
     name lhipjoint
     direction 0.635376 -0.686425 0.353719 
     length 2.47244 
     axis 0 0 0  XYZ
  end
  begin
     id 2 
     name lfemur
     direction 0.34202 -0.939693 0  
     length 7.25268  
     axis 0 0 20  XYZ
    dof rx ry rz
    limits (-160.0 20.0)
           (-70.0 70.0)
           (-60.0 70.0)
  end
  begin
     id 3 
     name ltibia
     direction 0.34202 -0.939693 0   
     length 7.6767   
     axis 0 0 20   XYZ
    dof rx
    limits (-10.0 170.0)
  end
  begin
     id 4 
     name lfoot
     direction 0.0803374 -0.220725 0.972022   
     length 2.22945   
     axis -90 7.62852e-016 20   XYZ
    dof rx rz
    limits (-45.0 90.0)
           (-70.0 20.0)
  end
  begin
     id 5 
     name ltoes
     direction 1.53579e-011 -4.21994e-011 1   
     length 1.11848   
     axis -90 7.62852e-016 20   XYZ
    dof rx
    limits (-90.0 20.0)
  end
  begin
     id 6 
     name rhipjoint
     direction -0.664428 -0.664335 0.342336   
     length 2.55466  
     axis 0 0 0  XYZ 
  end
  begin
     id 7 
     name rfemur
     direction -0.34202 -0.939693 0   
     length 6.83172   
     axis 0 0 -20   XYZ
    dof rx ry rz
    limits (-160.0 20.0)
           (-70.0 70.0)
           (-70.0 60.0)
  end
  begin
     id 8 
     name rtibia
     direction -0.34202 -0.939693 0   
     length 7.62692   
     axis 0 0 -20   XYZ
    dof rx
    limits (-10.0 170.0)
 end
 begin
     id 9 
     name rfoot
     direction -0.0949276 -0.260811 0.960711   
     length 2.19684  
     axis -90 -7.62852e-016 -20   XYZ
    dof rx rz
    limits (-45.0 90.0)
           (-20.0 70.0)
  end
  begin
     id 10 
     name rtoes
     direction -1.53543e-011 -4.2183e-011 1   
     length 1.09848   
     axis -90 -7.62852e-016 -20   XYZ
    dof rx
    limits (-90.0 20.0)
  end
  begin
     id 11 
     name lowerback
     direction 0.0118782 0.999815 -0.0151555   
     length 2.15772   
     axis 0 0 0   XYZ
    dof rx ry rz
    limits (-20.0 45.0)
           (-30.0 30.0)
           (-30.0 30.0)
  end
  begin
     id 12 
     name upperback
     direction 0.00130825 0.999065 0.0432113   
     length 2.14863   
     axis 0 0 0   XYZ
    dof rx ry rz
    limits (-20.0 45.0)
           (-30.0 30.0)
           (-30.0 30.0)
  end
  begin
     id 13 
     name thorax
     direction -0.00347005 0.998773 0.0494011   
     length 2.14936   
     axis 0 0 0   XYZ
    dof rx ry rz
    limits (-20.0 45.0)
           (-30.0 30.0)
           (-30.0 30.0)
  end
  begin
     id 14 
     name lowerneck
     direction -0.0262159 0.99424 0.103921   
     length 1.69373   
     axis 0 0 0   XYZ
    dof rx ry rz
    limits (-20.0 45.0)
           (-30.0 30.0)
           (-30.0 30.0)
  end
  begin
     id 15 
     name upperneck
     direction 0.0353511 0.977394 -0.20845   
     length 1.70857   
     axis 0 0 0   XYZ
    dof rx ry rz
    limits (-20.0 45.0)
           (-30.0 30.0)
           (-30.0 30.0)
  end
  begin
     id 16
     name head
     direction 0.0139214 0.996594 -0.0812836  
     length 1.72777  
     axis 0 0 0   XYZ
    dof rx ry rz
    limits (-20.0 45.0)
           (-30.0 30.0)
           (-30.0 30.0)
  end
  begin
     id 17 
     name lclavicle
     direction 0.841247 0.537205 -0.0609508  
     length 3.55371  
     axis 0 0 0   XYZ
    dof ry rz
    limits (-20.0 10.0)
           (0.0 20.0)
  end
  begin
     id 18 
     name lhumerus
     direction 1 -4.48964e-011 1.60116e-018   
     length 4.91377   
     axis -180 -30 -90   XYZ
    dof rx ry rz
    limits (-60.0 90.0)
           (-90.0 90.0)
           (-90.0 90.0)
  end
  begin
     id 19
     name lradius
     direction 1 -4.48989e-011 -8.93847e-027   
     length 3.00291   
     axis -180 -30 -90   XYZ
    dof rx
    limits (-10.0 170.0)
  end
  begin
     id 20
     name lwrist
     direction 1 -4.48932e-011 -7.31504e-027   
     length 1.50145   
     axis 5.74121e-015 90 90   XYZ
    dof ry
    limits (-180.0 0.0)
 end
  begin
     id 21 
     name lhand
     direction 1 -4.48971e-011 -1.46301e-026   
     length 0.450922   
     axis 9.33524e-015 90 90   XYZ
    dof rx rz
    limits (-90.0 90.0)
           (-45.0 45.0)
  end
  begin
     id 22 
     name lfingers
     direction 1 -4.49039e-011 -2.92602e-026   
     length 0.363545   
     axis 1.86705e-014 90 90   XYZ
    dof rx
    limits (0.0 90.0)
  end
  begin
     id 23
     name lthumb
     direction 0.707107 -6.34941e-011 0.707107   
     length 0.52198   
     axis -90 45 2.85299e-015   XYZ
    dof rx rz
    limits (-45.0 45.0)
           (-45.0 45.0)
  end
  begin
     id 24 
     name rclavicle
     direction -0.825079 0.56158 -0.0622297   
     length 3.39909  
     axis 0 0 0   XYZ 
    dof ry rz
    limits (-10.0 20.0)
           (-20.0 0.0)
  end
  begin
     id 25 
     name rhumerus
     direction -1 -4.48965e-011 1.61691e-027  
     length 4.86725   
     axis -180 30 90   XYZ
    dof rx ry rz
    limits (-90.0 60.0)
           (-90.0 90.0)
           (-90.0 90.0)
  end
  begin
     id 26 
     name rradius
     direction -1 -4.48964e-011 -2.25776e-027   
     length 3.17144   
     axis -180 30 90   XYZ
    dof rx
    limits (-10.0 170.0)
  end
  begin
     id 27 
     name rwrist
     direction -1 -4.48961e-011 -7.31504e-027   
     length 1.58572   
     axis 5.74121e-015 -90 -90   XYZ
    dof ry
    limits (-180.0 0.0)
  end
  begin
     id 28
     name rhand
     direction -1 -4.49013e-011 -1.46301e-026   
     length 0.419368   
     axis 9.33524e-015 -90 -90   XYZ
    dof rx rz
    limits (-90.0 90.0)
           (-45.0 45.0)
  end
  begin
     id 29
     name rfingers
     direction -1 -4.489e-011 -2.92602e-026   
     length 0.338105   
     axis 1.86705e-014 -90 -90   XYZ
    dof rx
    limits (0.0 90.0)
  end
  begin
     id 30
     name rthumb
     direction -0.707107 -6.35022e-011 0.707107   
     length 0.485453   
     axis -90 -45 -2.85299e-015   XYZ
    dof rx rz
    limits (-45.0 45.0)
           (-45.0 45.0)
  end
:hierarchy
  begin
    root lhipjoint rhipjoint lowerback
    lhipjoint lfemur
    lfemur ltibia
    ltibia lfoot
    lfoot ltoes
    rhipjoint rfemur
    rfemur rtibia
    rtibia rfoot
    rfoot rtoes
    lowerback upperback
    upperback thorax
    thorax lowerneck lclavicle rclavicle
    lowerneck upperneck
    upperneck head
    lclavicle lhumerus
    lhumerus lradius
    lradius lwrist
    lwrist lhand lthumb
    lhand lfingers
    rclavicle rhumerus
    rhumerus rradius
    rradius rwrist
    rwrist rhand rthumb
    rhand rfingers
  end

#!OML:ASF H:\Swim 2\Project 1\Capture day 1\Session 1\male.ASF
:FULLY-SPECIFIED
:DEGREES
147
root 1.58262 13.5274 8.47382 72.672 -2.38986 -5.88738
lowerback 6.14169 3.35816 -3.59343
upperback -2.09086 4.18698 -0.150188
thorax -5.87202 2.19776 1.37944
lowerneck -18.8852 -1.68734 0.169549
upperneck 22.7994 -3.51312 4.32511
head 10.5296 -1.04972 1.00952
rclavicle -9.93923e-015 -1.17283e-014
rhumerus 13.5811 35.4977 -3.10709
rradius 76.9181
rwrist -34.5101
rhand -13.5145 5.87603
rfingers 7.12502
rthumb 12.5972 -23.7241
lclavicle -9.93923e-015 -1.17283e-014
lhumerus 35.4176 -47.2035 -10.0976
lradius 76.6973
lwrist 63.3573
lhand -42.1862 -12.588
lfingers 7.12502
lthumb -15.0745 16.8431
rfemur -51.2407 -7.43795 27.561
rtibia 100.592
rfoot 2.58521 5.91687
rtoes 4.70351
lfemur -52.7288 16.5463 -25.2973
ltibia 114.683
lfoot -17.9585 0.547326
ltoes -18.4018
148
root 1.58142 13.541 8.46654 72.6927 -2.41784 -5.91816
lowerback 6.30556 3.33626 -3.61506
upperback -2.04305 4.14832 -0.15263
thorax -5.9144 2.17842 1.38558
lowerneck -18.9044 -1.674 0.044537
upperneck 22.5007 -3.46143 4.39466
head 10.4265 -1.03489 1.06072
rclavicle -3.29983e-014 5.26779e-015
rhumerus 12.7513 36.7176 -4.43877
rradius 78.9131
rwrist -35.336
rhand -14.0047 6.21751
rfingers 7.12502
rthumb 12.1246 -23.4112
lclavicle -3.29983e-014 5.26779e-015
lhumerus 34.3269 -48.4336 -8.84253
lradius 78.8781
lwrist 63.8542
lhand -42.2057 -12.735
lfingers 7.12502
lthumb -15.0933 16.6947
rfemur -51.5838 -7.66759 27.5885
rtibia 102.069
rfoot 2.22379 5.84486
rtoes 5.36778
lfemur -52.8579 16.8513 -25.195
ltibia 115.634
lfoot -18.24 0.0281146
ltoes -18.3027
149
root 1.58032 13.5549 8.45913 72.7186 -2.45052 -5.94555
lowerback 6.46198 3.31214 -3.63899
upperback -1.99326 4.10647 -0.160106
thorax -5.95001 2.15741 1.38884
lowerneck -18.9412 -1.66053 -0.0654979
upperneck 22.2103 -3.40978 4.44495
head 10.3294 -1.02041 1.10236
rclavicle -3.57812e-015 -3.67752e-015
rhumerus 11.9972 37.869 -5.77793
rradius 80.9144
rwrist -36.1168
rhand -14.556 6.54441
rfingers 7.12502
rthumb 11.593 -23.1149
lclavicle -3.57812e-015 -3.67752e-015
lhumerus 33.2673 -49.5929 -7.56792
lradius 81.0503
lwrist 64.2088
lhand -42.2255 -12.872
lfingers 7.12502
lthumb -15.1124 16.5563
rfemur -51.9323 -7.94165 27.5952
rtibia 103.554
rfoot 1.87316 5.80186
rtoes 5.93845
lfemur -52.9769 17.1642 -25.0705
ltibia 116.545
lfoot -18.539 -0.481638
ltoes -18.2118
150
root 1.57922 13.5689 8.45138 72.7446 -2.4822 -5.97239
lowerback 6.61182 3.29304 -3.66342
upperback -1.93653 4.07134 -0.171513
thorax -5.9746 2.13944 1.38827
lowerneck -19.0255 -1.65088 -0.159953
upperneck 21.9734 -3.36745 4.48028
head 10.2606 -1.00864 1.13478
rclavicle 1.94809e-014 2.48481e-015
rhumerus 11.3662 38.9335 -6.9952
rradius 82.9446
rwrist -36.9417
rhand -15.2244 6.88996
rfingers 7.12502
rthumb 10.9483 -22.8046
lclavicle 1.94809e-014 2.48481e-015
lhumerus 32.2648 -50.657 -6.2738
lradius 83.2062
lwrist 64.4314
lhand -42.2225 -12.9598
lfingers 7.12502
lthumb -15.1095 16.4687
rfemur -52.274 -8.25908 27.5853
rtibia 105.038
rfoot 1.551 5.8105
rtoes 6.4125
lfemur -53.0791 17.4923 -24.9164
ltibia 117.424
lfoot -18.8181 -0.952925
ltoes -18.0472
151
root 1.57814 13.5831 8.44328 72.7698 -2.51069 -5.99661
lowerback 6.75555 3.27795 -3.6897
upperback -1.87791 4.04168 -0.18175
thorax -5.99423 2.1242 1.38978
lowerneck -19.1172 -1.64841 -0.248167
upperneck 21.7512 -3.33568 4.50829
head 10.1986 -1.00143 1.16207
rclavicle -1.27222e-014 5.06901e-015
rhumerus 10.7986 39.95 -8.22136
rradius 84.9419
rwrist -37.6654
rhand -16.0519 7.3824
rfingers 7.12502
rthumb 10.15 -22.3528
lclavicle -1.27222e-014 5.06901e-015
lhumerus 31.3058 -51.6264 -4.93316
lradius 85.3479
lwrist 64.5534
lhand -42.1894 -12.9951
lfingers 7.12502
lthumb -15.0776 16.4358
rfemur -52.6055 -8.62193 27.5567
rtibia 106.514
rfoot 1.27166 5.89104
rtoes 6.82281
lfemur -53.161 17.8353 -24.7326
ltibia 118.275
lfoot -19.0495 -1.37614
ltoes -17.78
152
root 1.57716 13.5974 8.43465 72.7959 -2.53088 -6.0168
lowerback 6.89131 3.2704 -3.71668
upperback -1.82153 4.02261 -0.18752
thorax -6.01263 2.11436 1.39542
lowerneck -19.2099 -1.66049 -0.33293
upperneck 21.5487 -3.32613 4.5378
head 10.1447 -1.00328 1.18626
rclavicle -4.65156e-014 4.67144e-015
rhumerus 10.2589 40.9135 -9.49636
rradius 86.8933
rwrist -38.2823
rhand -17.0341 8.05599
rfingers 7.12502
rthumb 9.20241 -21.7232
lclavicle -4.65156e-014 4.67144e-015
lhumerus 30.3961 -52.4911 -3.52537
lradius 87.4814
lwrist 64.6128
lhand -42.1305 -12.9708
lfingers 7.12502
lthumb -15.0209 16.4644
rfemur -52.9274 -9.0312 27.513
rtibia 107.976
rfoot 1.04724 6.05745
rtoes 7.1552
lfemur -53.2229 18.1923 -24.5149
ltibia 119.107
lfoot -19.2599 -1.74312
ltoes -17.4359
153
root 1.57628 13.6117 8.42534 72.8229 -2.54982 -6.032
lowerback 7.01479 3.27633 -3.75574
upperback -1.76896 4.0212 -0.188915
thorax -6.03027 2.11385 1.41065
lowerneck -19.3001 -1.69002 -0.413445
upperneck 21.3724 -3.34353 4.56997
head 10.1006 -1.01612 1.207
rclavicle 6.04305e-014 -3.8763e-015
rhumerus 9.72733 41.8252 -10.8097
rradius 88.823
rwrist -38.8886
rhand -18.0927 8.85971
rfingers 7.12502
rthumb 8.18086 -20.9619
lclavicle 6.04305e-014 -3.8763e-015
lhumerus 29.5615 -53.2489 -2.05544
lradius 89.609
lwrist 64.6517
lhand -42.0668 -12.9675
lfingers 7.12502
lthumb -14.9595 16.4722
rfemur -53.2385 -9.48622 27.444
rtibia 109.419
rfoot 0.869731 6.32544
rtoes 7.39901
lfemur -53.2583 18.5645 -24.2707
ltibia 119.921
lfoot -19.4684 -2.0486
ltoes -17.1055
154
root 1.57555 13.626 8.41518 72.8572 -2.57324 -6.04251
lowerback 7.11764 3.30082 -3.81629
upperback -1.72389 4.04374 -0.185523
thorax -6.04741 2.12618 1.44053
lowerneck -19.3873 -1.73994 -0.489309
upperneck 21.2252 -3.39209 4.60468
head 10.0675 -1.04186 1.22361
rclavicle 6.24184e-014 -1.16289e-014
rhumerus 9.18746 42.6881 -12.1376
rradius 90.7564
rwrist -39.5425
rhand -19.2064 9.72797
rfingers 7.12502
rthumb 7.10593 -20.1327
lclavicle 6.24184e-014 -1.16289e-014
lhumerus 28.8339 -53.8989 -0.529865
lradius 91.7265
lwrist 64.6971
lhand -41.9986 -12.9209
lfingers 7.12502
lthumb -14.8939 16.5237
rfemur -53.5545 -9.98651 27.3452
rtibia 110.847
rfoot 0.717928 6.71001
rtoes 7.4831
lfemur -53.2743 18.9506 -24.006
ltibia 120.722
lfoot -19.6874 -2.33556
ltoes -16.7952
155
root 1.575 13.6399 8.40392 72.9082 -2.60435 -6.04652
lowerback 7.18755 3.34118 -3.89874
upperback -1.68943 4.08702 -0.17957
thorax -6.06009 2.14981 1.48394
lowerneck -19.4812 -1.81183 -0.561051
upperneck 21.1068 -3.4767 4.65289
head 10.0473 -1.08139 1.2393
rclavicle 4.33351e-014 -1.37161e-014
rhumerus 8.64954 43.516 -13.459
rradius 92.7004
rwrist -40.3733
rhand -20.3438 10.7335
rfingers 7.12502
rthumb 6.00793 -19.1613
lclavicle 4.33351e-014 -1.37161e-014
lhumerus 28.2235 -54.438 1.02927
lradius 93.8384
lwrist 64.7905
lhand -41.9066 -12.8685
lfingers 7.12502
lthumb -14.8052 16.5826
rfemur -53.8802 -10.528 27.2144
rtibia 112.254
rfoot 0.565177 7.21429
rtoes 7.37391
lfemur -53.2806 19.3442 -23.7263
ltibia 121.514
lfoot -19.9255 -2.63586
ltoes -16.5638
